<svg xmlns="http://www.w3.org/2000/svg" viewBox="0 0 920 620" role="img" aria-labelledby="title desc">
  <title id="title">RevFlow interface mockup</title>
  <desc id="desc">A mock Jira issue page with a RevFlow panel showing quote status, client, value, and linked delivery context.</desc>
  <defs>
    <linearGradient id="bg" x1="0" x2="1" y1="0" y2="1">
      <stop offset="0" stop-color="#fffdf6"/>
      <stop offset="1" stop-color="#e8eee9"/>
    </linearGradient>
    <linearGradient id="panel" x1="0" x2="1">
      <stop offset="0" stop-color="#173d38"/>
      <stop offset="1" stop-color="#236c69"/>
    </linearGradient>
    <filter id="shadow" x="-20%" y="-20%" width="140%" height="140%">
      <feDropShadow dx="0" dy="24" stdDeviation="24" flood-color="#14211e" flood-opacity="0.18"/>
    </filter>
  </defs>

  <rect width="920" height="620" rx="32" fill="url(#bg)"/>
  <rect x="34" y="34" width="852" height="552" rx="22" fill="#fffdf6" filter="url(#shadow)"/>

  <rect x="34" y="34" width="852" height="70" rx="22" fill="#f6f8fa"/>
  <rect x="34" y="82" width="852" height="22" fill="#f6f8fa"/>
  <circle cx="72" cy="69" r="12" fill="#b95f52"/>
  <circle cx="106" cy="69" r="12" fill="#bf7d2e"/>
  <circle cx="140" cy="69" r="12" fill="#236c69"/>
  <rect x="186" y="55" width="154" height="28" rx="8" fill="#e0e7e4"/>
  <rect x="676" y="55" width="154" height="28" rx="8" fill="#e0e7e4"/>

  <rect x="74" y="150" width="478" height="42" rx="8" fill="#17201d"/>
  <rect x="74" y="214" width="392" height="18" rx="6" fill="#94a09a"/>
  <rect x="74" y="248" width="438" height="18" rx="6" fill="#c1cac5"/>
  <rect x="74" y="282" width="326" height="18" rx="6" fill="#c1cac5"/>

  <rect x="74" y="352" width="88" height="28" rx="8" fill="#e6f0ef"/>
  <rect x="178" y="352" width="120" height="28" rx="8" fill="#f3e4d0"/>
  <rect x="314" y="352" width="96" height="28" rx="8" fill="#eaecef"/>

  <rect x="74" y="430" width="448" height="28" rx="8" fill="#e8eee9"/>
  <rect x="74" y="478" width="380" height="18" rx="6" fill="#c1cac5"/>
  <rect x="74" y="512" width="296" height="18" rx="6" fill="#c1cac5"/>

  <rect x="584" y="136" width="258" height="392" rx="18" fill="url(#panel)"/>
  <text x="616" y="184" fill="#fffdf6" font-family="Inter, Arial, sans-serif" font-size="28" font-weight="800">RevFlow</text>
  <rect x="616" y="210" width="122" height="30" rx="15" fill="#f1b96f"/>
  <text x="639" y="231" fill="#173d38" font-family="Inter, Arial, sans-serif" font-size="14" font-weight="800">Invoiceable</text>

  <text x="616" y="282" fill="#dbe6e2" font-family="Inter, Arial, sans-serif" font-size="15" font-weight="700">Client</text>
  <text x="616" y="310" fill="#fffdf6" font-family="Inter, Arial, sans-serif" font-size="24" font-weight="800">Acme Services</text>

  <text x="616" y="360" fill="#dbe6e2" font-family="Inter, Arial, sans-serif" font-size="15" font-weight="700">Revenue value</text>
  <text x="616" y="392" fill="#fffdf6" font-family="Inter, Arial, sans-serif" font-size="34" font-weight="850">GBP 12,450</text>

  <rect x="616" y="426" width="194" height="1" fill="#5e908b"/>
  <rect x="616" y="452" width="160" height="18" rx="6" fill="#dbe6e2" opacity="0.84"/>
  <rect x="616" y="486" width="118" height="18" rx="6" fill="#dbe6e2" opacity="0.64"/>
</svg>
